<svg width="16" height="16" viewBox="0 0 16 16" fill="none" xmlns="http://www.w3.org/2000/svg">
<path d="M7.16471 12.857C7.30822 12.962 7.45272 13.0633 7.59802 13.1607C7.45409 13.065 7.31043 12.9654 7.16723 12.8623C6.40804 12.3041 5.67427 11.6808 4.97907 10.9989M7.16471 12.857C7.16463 12.8569 7.16456 12.8569 7.16448 12.8568L7.45967 12.4533L7.16494 12.8571C7.16486 12.8571 7.16479 12.857 7.16471 12.857ZM7.16471 12.857C6.4043 12.3021 5.66535 11.6725 4.98124 10.9952L4.97768 10.9917L4.9777 10.9917C4.29367 10.3008 3.67053 9.56827 3.12197 8.814C2.56927 8.05404 2.12942 7.28787 1.81276 6.54197L1.81252 6.54141C1.7917 6.49217 1.77152 6.44296 1.75201 6.39378M1.75201 6.39378C1.46887 5.67413 1.33301 4.99178 1.33301 4.35992C1.33301 5.01171 1.47671 5.69979 1.75201 6.39378ZM1.75201 6.39378C1.7719 6.44433 1.79252 6.49507 1.81386 6.54598M1.81386 6.54598C1.81378 6.54577 1.81369 6.54557 1.8136 6.54536L1.35309 6.73989L1.8141 6.54656C1.81402 6.54636 1.81394 6.54617 1.81386 6.54598ZM1.81386 6.54598C2.12332 7.27842 2.56295 8.04524 3.11788 8.81985M3.11788 8.81985C3.11736 8.81914 3.11684 8.81843 3.11632 8.81772L2.71301 9.11325L3.11942 8.82199C3.1189 8.82128 3.11839 8.82056 3.11788 8.81985ZM3.11788 8.81985C3.669 9.57174 4.29158 10.3046 4.97907 10.9989M4.97907 10.9989C4.97823 10.998 4.97739 10.9972 4.97654 10.9964L4.62636 11.3532L4.98155 11.0014C4.98072 11.0005 4.9799 10.9997 4.97907 10.9989ZM5.59222 6.94799C5.65564 7.05898 5.75195 7.20745 5.89697 7.39851C5.75765 7.21607 5.65301 7.05905 5.57948 6.92647L5.57496 6.91518C5.5762 6.91767 5.57732 6.91991 5.5783 6.92186L5.57913 6.92353L5.58533 6.93594L5.59222 6.94799ZM5.52481 6.78981L5.52264 6.78438C5.52228 6.78293 5.52192 6.78149 5.52156 6.78006L5.52481 6.78981ZM5.64524 6.30741L5.54014 6.41715C5.55611 6.38948 5.57608 6.36396 5.59989 6.34014L5.59996 6.34021L5.60676 6.33314L6.10351 5.81652C6.25566 5.6639 6.38252 5.50688 6.47489 5.35086C6.56409 5.2045 6.61822 5.0454 6.61965 4.87355C6.61966 4.87568 6.61967 4.8778 6.61967 4.87992C6.61967 5.03295 6.57622 5.19163 6.47759 5.356L6.47331 5.36315L6.46926 5.37043C6.39846 5.49787 6.27792 5.65457 6.10612 5.82637L6.10604 5.82628L6.09857 5.83408L5.64524 6.30741ZM4.40559 1.52751C4.4691 1.56787 4.52684 1.61379 4.57857 1.66517C4.52566 1.61357 4.46804 1.56766 4.40559 1.52751ZM3.87873 1.34265C3.9995 1.35735 4.1184 1.38881 4.22449 1.43349C4.11682 1.38975 4.00058 1.35763 3.87873 1.34265ZM3.72634 1.33325C3.22078 1.33325 2.77988 1.54877 2.39877 1.90297C2.81725 1.50892 3.26518 1.33325 3.72634 1.33325ZM1.57172 3.06941C1.71277 2.71198 1.93195 2.37215 2.22971 2.06743C1.93605 2.36952 1.71863 2.70333 1.57512 3.06834C1.5212 3.20213 1.47672 3.33799 1.44125 3.47594C1.47644 3.33715 1.52002 3.2016 1.57172 3.06941ZM14.4782 12.9408C14.4919 12.9121 14.5048 12.8832 14.5169 12.8541C14.5034 12.8879 14.4889 12.9216 14.4732 12.9551C14.3544 13.2097 14.2094 13.4269 14.0244 13.6287L14.0222 13.6311C13.6862 14.0025 13.3337 14.2547 12.9329 14.4161L12.9317 14.4166C12.5317 14.5789 12.0956 14.6666 11.633 14.6666C10.9596 14.6666 10.2328 14.5056 9.46141 14.1795C9.21194 14.0735 8.96097 13.9541 8.70947 13.8223C8.95849 13.9518 9.20844 14.0692 9.45844 14.1738C10.6641 14.6882 11.8795 14.8462 12.9309 14.4086C13.3439 14.2384 13.7042 13.9799 14.0237 13.6222C14.2111 13.4178 14.3581 13.1963 14.4782 12.9408Z" fill="#1C4FD1" stroke="#1C4FD1"/>
</svg>
