<svg width="32" height="32" viewBox="0 0 32 32" fill="none" xmlns="http://www.w3.org/2000/svg">
<path d="M16.2124 15.4933C16.1724 15.4933 16.1458 15.4933 16.1058 15.4933C16.0391 15.48 15.9458 15.48 15.8658 15.4933C11.9991 15.3733 9.0791 12.3333 9.0791 8.58663C9.0791 4.77329 12.1858 1.66663 15.9991 1.66663C19.8124 1.66663 22.9191 4.77329 22.9191 8.58663C22.9058 12.3333 19.9724 15.3733 16.2524 15.4933C16.2391 15.4933 16.2258 15.4933 16.2124 15.4933ZM15.9991 3.66663C13.2924 3.66663 11.0791 5.87996 11.0791 8.58663C11.0791 11.2533 13.1591 13.4 15.8124 13.4933C15.8791 13.48 16.0658 13.48 16.2391 13.4933C18.8524 13.3733 20.9058 11.2266 20.9191 8.58663C20.9191 5.87996 18.7058 3.66663 15.9991 3.66663Z" fill="#858DA3"/>
<path d="M16.2261 30.0667C13.6128 30.0667 10.9861 29.4 8.99948 28.0667C7.14615 26.84 6.13281 25.16 6.13281 23.3334C6.13281 21.5067 7.14615 19.8134 8.99948 18.5734C12.9995 15.92 19.4795 15.92 23.4528 18.5734C25.2928 19.8 26.3195 21.48 26.3195 23.3067C26.3195 25.1334 25.3061 26.8267 23.4528 28.0667C21.4528 29.4 18.8395 30.0667 16.2261 30.0667ZM10.1061 20.2534C8.82615 21.1067 8.13281 22.2 8.13281 23.3467C8.13281 24.48 8.83948 25.5734 10.1061 26.4134C13.4261 28.64 19.0261 28.64 22.3461 26.4134C23.6261 25.56 24.3195 24.4667 24.3195 23.32C24.3195 22.1867 23.6128 21.0934 22.3461 20.2534C19.0261 18.04 13.4261 18.04 10.1061 20.2534Z" fill="#858DA3"/>
</svg>
