<svg width="153" height="13" viewBox="0 0 153 13" fill="none" xmlns="http://www.w3.org/2000/svg">
<path opacity="0.5" d="M2.394 1.95C3.33667 0.997999 4.47533 0.521999 5.81 0.521999C7.14467 0.521999 8.28333 0.997999 9.226 1.95C10.1687 2.89267 10.64 4.02667 10.64 5.352C10.64 6.67733 10.1687 7.816 9.226 8.768C8.28333 9.71067 7.14467 10.182 5.81 10.182C4.47533 10.182 3.33667 9.71067 2.394 8.768C1.45133 7.816 0.98 6.67733 0.98 5.352C0.98 4.02667 1.45133 2.89267 2.394 1.95ZM2.982 8.18C3.766 8.95467 4.70867 9.342 5.81 9.342C6.91133 9.342 7.84933 8.95467 8.624 8.18C9.408 7.396 9.8 6.45333 9.8 5.352C9.8 4.25067 9.408 3.31267 8.624 2.538C7.84933 1.754 6.91133 1.362 5.81 1.362C4.70867 1.362 3.766 1.754 2.982 2.538C2.20733 3.31267 1.82 4.25067 1.82 5.352C1.82 6.45333 2.20733 7.396 2.982 8.18ZM5.964 3.574C5.47867 3.574 5.07267 3.742 4.746 4.078C4.42867 4.414 4.27 4.84333 4.27 5.366C4.27 5.87 4.42867 6.29 4.746 6.626C5.07267 6.95267 5.47867 7.116 5.964 7.116C6.496 7.116 6.93 6.892 7.266 6.444H8.316C8.08267 6.92933 7.76067 7.31667 7.35 7.606C6.94867 7.886 6.48667 8.026 5.964 8.026C5.21733 8.026 4.58733 7.774 4.074 7.27C3.57 6.75667 3.318 6.122 3.318 5.366C3.318 4.60067 3.57 3.96133 4.074 3.448C4.58733 2.92533 5.21733 2.664 5.964 2.664C6.48667 2.664 6.94867 2.80867 7.35 3.098C7.76067 3.38733 8.08267 3.77467 8.316 4.26H7.266C6.93 3.80267 6.496 3.574 5.964 3.574ZM17.3957 8.824H22.0437V10H15.7017V8.824L19.4957 5.338C19.8597 4.99267 20.1397 4.67067 20.3357 4.372C20.5317 4.07333 20.6297 3.74667 20.6297 3.392C20.6297 2.888 20.4523 2.482 20.0977 2.174C19.743 1.85667 19.2997 1.698 18.7677 1.698C18.273 1.698 17.8483 1.82867 17.4937 2.09C17.139 2.342 16.9057 2.71533 16.7937 3.21H15.4777C15.6363 2.398 15.9957 1.74933 16.5557 1.264C17.125 0.769333 17.839 0.521999 18.6977 0.521999C19.6403 0.521999 20.4057 0.778666 20.9937 1.292C21.5817 1.80533 21.8757 2.49133 21.8757 3.35C21.8757 4.246 21.409 5.12333 20.4757 5.982L17.3957 8.824ZM25.6356 0.843999C26.065 0.629333 26.5456 0.521999 27.0776 0.521999C27.6096 0.521999 28.0856 0.629333 28.5056 0.843999C28.935 1.05867 29.2803 1.334 29.5416 1.67C29.803 2.006 30.0176 2.39333 30.1856 2.832C30.3536 3.27067 30.4703 3.7 30.5356 4.12C30.601 4.53067 30.6336 4.94133 30.6336 5.352C30.6336 5.76267 30.601 6.178 30.5356 6.598C30.4703 7.00867 30.3536 7.43333 30.1856 7.872C30.0176 8.31067 29.803 8.698 29.5416 9.034C29.2803 9.37 28.935 9.64533 28.5056 9.86C28.0856 10.0747 27.6096 10.182 27.0776 10.182C26.5456 10.182 26.065 10.0747 25.6356 9.86C25.2156 9.64533 24.875 9.37 24.6136 9.034C24.3523 8.698 24.1376 8.31067 23.9696 7.872C23.8016 7.43333 23.685 7.00867 23.6196 6.598C23.5543 6.178 23.5216 5.76267 23.5216 5.352C23.5216 4.94133 23.5543 4.53067 23.6196 4.12C23.685 3.7 23.8016 3.27067 23.9696 2.832C24.1376 2.39333 24.3523 2.006 24.6136 1.67C24.875 1.334 25.2156 1.05867 25.6356 0.843999ZM25.9856 8.67C26.2936 8.894 26.6576 9.006 27.0776 9.006C27.4976 9.006 27.8616 8.894 28.1696 8.67C28.4776 8.43667 28.7156 8.13333 28.8836 7.76C29.0516 7.38667 29.173 6.99933 29.2476 6.598C29.3316 6.18733 29.3736 5.772 29.3736 5.352C29.3736 4.932 29.3316 4.52133 29.2476 4.12C29.173 3.70933 29.0516 3.31733 28.8836 2.944C28.7156 2.57067 28.4776 2.272 28.1696 2.048C27.8616 1.81467 27.4976 1.698 27.0776 1.698C26.6576 1.698 26.2936 1.81467 25.9856 2.048C25.6776 2.272 25.4396 2.57067 25.2716 2.944C25.1036 3.31733 24.9776 3.70933 24.8936 4.12C24.819 4.52133 24.7816 4.932 24.7816 5.352C24.7816 5.772 24.819 6.18733 24.8936 6.598C24.9776 6.99933 25.1036 7.38667 25.2716 7.76C25.4396 8.13333 25.6776 8.43667 25.9856 8.67ZM34.1607 10V2.16L32.1727 3.952V2.412L34.1047 0.704H35.4207V10H34.1607ZM43.6207 9.384C43.0047 9.916 42.1787 10.182 41.1427 10.182C40.1067 10.182 39.2761 9.916 38.6507 9.384C38.0347 8.852 37.7267 8.20333 37.7267 7.438C37.7267 6.55133 38.1607 5.81867 39.0287 5.24C38.2261 4.71733 37.8247 4.022 37.8247 3.154C37.8247 2.426 38.1234 1.80533 38.7207 1.292C39.3274 0.778666 40.1347 0.521999 41.1427 0.521999C42.1507 0.521999 42.9534 0.778666 43.5507 1.292C44.1574 1.80533 44.4607 2.426 44.4607 3.154C44.4607 4.022 44.0594 4.71733 43.2567 5.24C44.1247 5.81867 44.5587 6.55133 44.5587 7.438C44.5587 8.20333 44.2461 8.852 43.6207 9.384ZM43.2007 3.154C43.2007 2.72467 43.0094 2.37467 42.6267 2.104C42.2441 1.83333 41.7494 1.698 41.1427 1.698C40.5361 1.698 40.0414 1.83333 39.6587 2.104C39.2761 2.37467 39.0847 2.72467 39.0847 3.154C39.0847 3.62067 39.2667 3.98933 39.6307 4.26C40.0041 4.52133 40.5081 4.652 41.1427 4.652C41.7774 4.652 42.2767 4.52133 42.6407 4.26C43.0141 3.98933 43.2007 3.62067 43.2007 3.154ZM39.6027 8.558C40.0134 8.85667 40.5267 9.006 41.1427 9.006C41.7587 9.006 42.2721 8.85667 42.6827 8.558C43.0934 8.25933 43.2987 7.886 43.2987 7.438C43.2987 6.94333 43.1027 6.55133 42.7107 6.262C42.3187 5.97267 41.7961 5.828 41.1427 5.828C40.4894 5.828 39.9667 5.97267 39.5747 6.262C39.1827 6.55133 38.9867 6.94333 38.9867 7.438C38.9867 7.886 39.1921 8.25933 39.6027 8.558ZM46.0343 5.856H53.0623V6.99H46.0343V5.856ZM56.2375 8.824H60.8855V10H54.5435V8.824L58.3375 5.338C58.7015 4.99267 58.9815 4.67067 59.1775 4.372C59.3735 4.07333 59.4715 3.74667 59.4715 3.392C59.4715 2.888 59.2941 2.482 58.9395 2.174C58.5848 1.85667 58.1415 1.698 57.6095 1.698C57.1148 1.698 56.6901 1.82867 56.3355 2.09C55.9808 2.342 55.7475 2.71533 55.6355 3.21H54.3195C54.4781 2.398 54.8375 1.74933 55.3975 1.264C55.9668 0.769333 56.6808 0.521999 57.5395 0.521999C58.4821 0.521999 59.2475 0.778666 59.8355 1.292C60.4235 1.80533 60.7175 2.49133 60.7175 3.35C60.7175 4.246 60.2508 5.12333 59.3175 5.982L56.2375 8.824ZM64.4774 0.843999C64.9068 0.629333 65.3874 0.521999 65.9194 0.521999C66.4514 0.521999 66.9274 0.629333 67.3474 0.843999C67.7768 1.05867 68.1221 1.334 68.3834 1.67C68.6448 2.006 68.8594 2.39333 69.0274 2.832C69.1954 3.27067 69.3121 3.7 69.3774 4.12C69.4428 4.53067 69.4754 4.94133 69.4754 5.352C69.4754 5.76267 69.4428 6.178 69.3774 6.598C69.3121 7.00867 69.1954 7.43333 69.0274 7.872C68.8594 8.31067 68.6448 8.698 68.3834 9.034C68.1221 9.37 67.7768 9.64533 67.3474 9.86C66.9274 10.0747 66.4514 10.182 65.9194 10.182C65.3874 10.182 64.9068 10.0747 64.4774 9.86C64.0574 9.64533 63.7168 9.37 63.4554 9.034C63.1941 8.698 62.9794 8.31067 62.8114 7.872C62.6434 7.43333 62.5268 7.00867 62.4614 6.598C62.3961 6.178 62.3634 5.76267 62.3634 5.352C62.3634 4.94133 62.3961 4.53067 62.4614 4.12C62.5268 3.7 62.6434 3.27067 62.8114 2.832C62.9794 2.39333 63.1941 2.006 63.4554 1.67C63.7168 1.334 64.0574 1.05867 64.4774 0.843999ZM64.8274 8.67C65.1354 8.894 65.4994 9.006 65.9194 9.006C66.3394 9.006 66.7034 8.894 67.0114 8.67C67.3194 8.43667 67.5574 8.13333 67.7254 7.76C67.8934 7.38667 68.0148 6.99933 68.0894 6.598C68.1734 6.18733 68.2154 5.772 68.2154 5.352C68.2154 4.932 68.1734 4.52133 68.0894 4.12C68.0148 3.70933 67.8934 3.31733 67.7254 2.944C67.5574 2.57067 67.3194 2.272 67.0114 2.048C66.7034 1.81467 66.3394 1.698 65.9194 1.698C65.4994 1.698 65.1354 1.81467 64.8274 2.048C64.5194 2.272 64.2814 2.57067 64.1134 2.944C63.9454 3.31733 63.8194 3.70933 63.7354 4.12C63.6608 4.52133 63.6234 4.932 63.6234 5.352C63.6234 5.772 63.6608 6.18733 63.7354 6.598C63.8194 6.99933 63.9454 7.38667 64.1134 7.76C64.2814 8.13333 64.5194 8.43667 64.8274 8.67ZM72.8625 8.824H77.5105V10H71.1685V8.824L74.9625 5.338C75.3265 4.99267 75.6065 4.67067 75.8025 4.372C75.9985 4.07333 76.0965 3.74667 76.0965 3.392C76.0965 2.888 75.9191 2.482 75.5645 2.174C75.2098 1.85667 74.7665 1.698 74.2345 1.698C73.7398 1.698 73.3151 1.82867 72.9605 2.09C72.6058 2.342 72.3725 2.71533 72.2605 3.21H70.9445C71.1031 2.398 71.4625 1.74933 72.0225 1.264C72.5918 0.769333 73.3058 0.521999 74.1645 0.521999C75.1071 0.521999 75.8725 0.778666 76.4605 1.292C77.0485 1.80533 77.3425 2.49133 77.3425 3.35C77.3425 4.246 76.8758 5.12333 75.9425 5.982L72.8625 8.824ZM80.8332 8.824H85.4812V10H79.1392V8.824L82.9332 5.338C83.2972 4.99267 83.5772 4.67067 83.7732 4.372C83.9692 4.07333 84.0672 3.74667 84.0672 3.392C84.0672 2.888 83.8898 2.482 83.5352 2.174C83.1805 1.85667 82.7372 1.698 82.2052 1.698C81.7105 1.698 81.2858 1.82867 80.9312 2.09C80.5765 2.342 80.3432 2.71533 80.2312 3.21H78.9152C79.0738 2.398 79.4332 1.74933 79.9932 1.264C80.5625 0.769333 81.2765 0.521999 82.1352 0.521999C83.0778 0.521999 83.8432 0.778666 84.4312 1.292C85.0192 1.80533 85.3132 2.49133 85.3132 3.35C85.3132 4.246 84.8465 5.12333 83.9132 5.982L80.8332 8.824ZM89.6957 0.704H97.3957V1.88H94.1757V10H92.9157V1.88H89.6957V0.704ZM100.433 3.378C101.395 3.378 102.197 3.70467 102.841 4.358C103.485 5.002 103.807 5.80933 103.807 6.78C103.807 7.75067 103.485 8.56267 102.841 9.216C102.197 9.86 101.395 10.182 100.433 10.182C99.4627 10.182 98.6554 9.86 98.0114 9.216C97.3767 8.56267 97.0594 7.75067 97.0594 6.78C97.0594 5.80933 97.3767 5.002 98.0114 4.358C98.6554 3.70467 99.4627 3.378 100.433 3.378ZM98.8794 8.404C99.29 8.84267 99.808 9.062 100.433 9.062C101.059 9.062 101.577 8.84267 101.987 8.404C102.398 7.96533 102.603 7.424 102.603 6.78C102.603 6.12667 102.398 5.58533 101.987 5.156C101.586 4.71733 101.068 4.498 100.433 4.498C99.7987 4.498 99.276 4.71733 98.8654 5.156C98.464 5.58533 98.2634 6.12667 98.2634 6.78C98.2634 7.424 98.4687 7.96533 98.8794 8.404ZM106.832 12.856H105.628V3.56H106.832V4.26C107.364 3.672 108.087 3.378 109.002 3.378C110.019 3.378 110.817 3.70933 111.396 4.372C111.974 5.03467 112.264 5.83733 112.264 6.78C112.264 7.72267 111.974 8.52533 111.396 9.188C110.817 9.85067 110.019 10.182 109.002 10.182C108.087 10.182 107.364 9.888 106.832 9.3V12.856ZM107.42 5.1C107 5.492 106.79 6.052 106.79 6.78C106.79 7.508 107 8.07267 107.42 8.474C107.849 8.866 108.362 9.062 108.96 9.062C109.566 9.062 110.066 8.84267 110.458 8.404C110.859 7.956 111.06 7.41467 111.06 6.78C111.06 6.14533 110.859 5.60867 110.458 5.17C110.066 4.722 109.566 4.498 108.96 4.498C108.362 4.498 107.849 4.69867 107.42 5.1ZM119.63 5.366L122.402 0.704H123.746L120.246 6.542V10H118.986V6.542L115.486 0.704H116.872L119.63 5.366ZM126.416 10.182C125.566 10.182 124.894 9.92067 124.4 9.398C123.905 8.87533 123.658 8.194 123.658 7.354V3.56H124.862V7.256C124.862 7.80667 125.002 8.24533 125.282 8.572C125.571 8.89867 125.991 9.062 126.542 9.062C127.083 9.062 127.55 8.866 127.942 8.474C128.343 8.082 128.544 7.55933 128.544 6.906V3.56H129.748V10H128.544V9.3C128.049 9.888 127.34 10.182 126.416 10.182ZM131.987 3.56H133.191V4.47C133.639 3.826 134.395 3.504 135.459 3.504H135.837V4.652H135.459C134.759 4.652 134.204 4.85733 133.793 5.268C133.392 5.67867 133.191 6.22467 133.191 6.906V10H131.987V3.56ZM137.539 3.56H138.743V10H137.539V3.56ZM137.441 2.09V0.634H138.841V2.09H137.441ZM146.681 5.38H145.365C145.085 4.792 144.436 4.498 143.419 4.498C142.943 4.498 142.565 4.57733 142.285 4.736C142.005 4.89467 141.865 5.10933 141.865 5.38C141.865 5.64133 141.972 5.83267 142.187 5.954C142.411 6.07533 142.747 6.15467 143.195 6.192L144.497 6.29C145.906 6.41133 146.611 7.03667 146.611 8.166C146.611 8.73533 146.349 9.216 145.827 9.608C145.313 9.99067 144.623 10.182 143.755 10.182C142.859 10.182 142.117 9.986 141.529 9.594C140.95 9.202 140.591 8.712 140.451 8.124H141.767C142.037 8.74933 142.751 9.062 143.909 9.062C144.338 9.062 144.693 8.98733 144.973 8.838C145.262 8.67933 145.407 8.46467 145.407 8.194C145.407 7.93267 145.295 7.74133 145.071 7.62C144.856 7.48933 144.52 7.40533 144.063 7.368L142.719 7.256C141.347 7.12533 140.661 6.514 140.661 5.422C140.661 4.84333 140.913 4.358 141.417 3.966C141.93 3.574 142.602 3.378 143.433 3.378C144.338 3.378 145.066 3.56933 145.617 3.952C146.167 4.32533 146.522 4.80133 146.681 5.38ZM148.774 1.796H149.978V3.56H152.036V4.624H149.978V7.676C149.978 8.10533 150.071 8.42267 150.258 8.628C150.445 8.83333 150.743 8.936 151.154 8.936H152.036V10H151.042C150.323 10 149.763 9.82733 149.362 9.482C148.97 9.12733 148.774 8.60933 148.774 7.928V4.624H147.584V3.56H148.774V1.796Z" fill="#18181C"/>
</svg>
